<svg xmlns:xlink="http://www.w3.org/1999/xlink" class="vector-0-2-19" width="60" height="55" viewBox="0 0 60 55" fill="none" xmlns="http://www.w3.org/2000/svg"><path d="M58.5925 4.9521C56.8747 2.33287 53.8965 0.763672 50.6278 0.763672H9.36498C6.1025 0.763672 3.12426 2.33287 1.40652 4.9521C-0.311222 7.57715 -0.465695 10.7914 0.99871 13.5506L19.3192 48.143C20.3635 50.1147 21.9453 51.7306 23.904 52.8156C25.733 53.8365 27.8461 54.3732 30.0026 54.3732C32.159 54.3732 34.2722 53.8365 36.1012 52.8156C38.0537 51.7248 39.6417 50.1089 40.686 48.143L59.0065 13.5506C60.4647 10.7914 60.3102 7.57715 58.5925 4.9521ZM37.4606 46.6205C36.0147 49.3447 33.228 50.9723 30.0026 50.9723C26.7772 50.9723 23.9843 49.3447 22.5446 46.6205L4.21793 12.0339C3.32199 10.3364 3.41467 8.35884 4.47127 6.74297C5.52786 5.1271 7.35683 4.16458 9.37116 4.16458H50.634C51.567 4.16458 52.463 4.37458 53.2601 4.75959C53.3466 4.80043 53.4331 4.84126 53.5134 4.88793C53.6061 4.94043 53.6988 4.99293 53.7915 5.05126C53.8965 5.11543 53.9954 5.18543 54.1004 5.25544C54.2302 5.34877 54.3537 5.44794 54.4773 5.54711C54.6071 5.65794 54.7306 5.76878 54.848 5.89128H55.4783C55.503 5.89128 55.5277 5.89128 55.5463 5.89712C55.8058 5.92628 55.9541 6.10129 56.0035 6.18296C56.1086 6.34046 56.1394 6.5213 56.0962 6.69047C56.0838 6.74297 56.0653 6.78964 56.0406 6.84214V6.84797L55.9726 6.97631L55.8985 7.11631L55.8243 7.25631C55.9108 7.41965 55.985 7.58882 56.0468 7.75799C56.1024 7.89799 56.1456 8.038 56.1889 8.178C56.2198 8.29467 56.2507 8.4055 56.2754 8.52217C56.3001 8.62134 56.3186 8.72634 56.331 8.82551C56.4484 9.57803 56.3928 10.3422 56.1703 11.0831C56.0715 11.4039 55.9417 11.7247 55.7811 12.0339L46.6054 29.3593L42.2183 37.6428L37.9116 45.7747L37.4606 46.6205Z" fill="#0A0A0A"></path><path d="M58.277 5.08008C56.8373 2.87503 54.3349 1.5625 51.5976 1.5625H17.1995C14.8577 1.5625 12.7013 2.51919 11.2183 4.16422C10.9588 4.45006 10.724 4.75924 10.5078 5.08008C9.06808 7.28512 8.93832 9.98018 10.1617 12.2961L25.4237 41.1308C26.3011 42.7817 27.6296 44.1409 29.2732 45.0568C30.8117 45.9143 32.5851 46.3635 34.3955 46.3635C35.6066 46.3635 36.7991 46.1593 37.9113 45.7743C38.4612 45.5818 38.9988 45.3426 39.5055 45.0626C41.1429 44.1526 42.4713 42.7992 43.3426 41.1484L49.7995 28.9739L58.6231 12.3136C59.8527 9.99185 59.7229 7.29096 58.277 5.08008ZM34.3955 43.4117C31.72 43.4117 29.4153 42.0642 28.2166 39.8067L12.9608 10.9835C12.2193 9.58934 12.2997 7.9618 13.1709 6.63178C14.0421 5.30175 15.5498 4.5084 17.2057 4.5084H51.6038C52.1475 4.5084 52.6727 4.5959 53.1671 4.75924C53.2845 4.80007 53.4019 4.8409 53.5131 4.88757C53.6861 4.95757 53.8529 5.03924 54.0136 5.13258C54.1063 5.18508 54.2051 5.24341 54.2916 5.30175C54.4152 5.37758 54.5264 5.46508 54.6438 5.55259C54.7798 5.65759 54.9033 5.77426 55.0269 5.89093H55.4842C55.5089 5.89093 55.5336 5.89093 55.5521 5.89676C55.8116 5.92593 55.9599 6.10093 56.0094 6.1826C56.1144 6.3401 56.1453 6.52094 56.1021 6.69011C56.0897 6.74261 56.0712 6.78928 56.0464 6.84178V6.84761L55.9785 6.97595L55.9043 7.11595C55.9847 7.27929 56.0526 7.44263 56.1082 7.60596C56.1515 7.7343 56.1886 7.8568 56.2194 7.98514C56.2442 8.08431 56.2627 8.18931 56.2812 8.29431C56.3121 8.46932 56.3307 8.65015 56.3368 8.82516C56.3677 9.56017 56.2009 10.3069 55.8364 10.9952L50.3557 21.3321L47.0067 27.6556L45.9006 29.7381L41.5754 37.8874L40.5497 39.8242C39.3572 42.07 37.0586 43.4117 34.3955 43.4117Z" fill="#0A0A0A"></path><path d="M57.9629 5.20806C56.7951 3.42302 54.7808 2.36133 52.5687 2.36133H25.0354C23.293 2.36133 21.6679 3.02051 20.4816 4.16387C20.3704 4.2747 20.2591 4.39137 20.1541 4.50804C19.9625 4.72971 19.7834 4.96305 19.6165 5.21389C18.4487 6.99893 18.3437 9.18064 19.3385 11.0532L31.5295 34.1128C32.9136 36.7262 35.6941 38.3479 38.7897 38.3479C39.7475 38.3479 40.6928 38.1904 41.5764 37.8871C41.7927 37.8113 42.0089 37.7296 42.219 37.6363C42.4538 37.5313 42.6886 37.4204 42.9111 37.2921C44.2334 36.5571 45.3023 35.4662 46.0067 34.142L51.1785 24.4176L58.2472 11.0707C59.242 9.19231 59.1369 6.99893 57.9629 5.20806ZM38.7897 35.8512C36.6704 35.8512 34.8414 34.7837 33.896 32.9987L21.6988 9.93899C21.118 8.8423 21.1798 7.57061 21.8657 6.52642C22.5515 5.48223 23.7379 4.85805 25.0354 4.85805H52.5687C52.9951 4.85805 53.4029 4.92222 53.7922 5.05055C53.8663 5.07389 53.9405 5.10305 54.0084 5.13222C54.1753 5.19639 54.3359 5.27806 54.4904 5.36556C54.6016 5.42973 54.7128 5.49973 54.8179 5.57556C54.9538 5.67473 55.0774 5.77974 55.201 5.8964H55.479C55.5037 5.8964 55.5284 5.8964 55.547 5.90224C55.8065 5.93141 55.9548 6.10641 56.0042 6.18808C56.1093 6.34558 56.1402 6.52642 56.0969 6.69559C56.0845 6.74809 56.066 6.79476 56.0413 6.84726V6.85309L55.9733 6.98143C56.0413 7.1331 56.1031 7.28477 56.1463 7.44227C56.1772 7.55311 56.2081 7.66394 56.2267 7.78061C56.2575 7.94978 56.2761 8.12479 56.2823 8.29979C56.2823 8.37563 56.2823 8.45146 56.2823 8.5273C56.2761 8.70813 56.2514 8.88314 56.2143 9.06397C56.1525 9.37315 56.0413 9.67649 55.8868 9.96233L49.5905 21.8334L48.8119 23.3034L45.2529 29.9944L43.6402 33.022C42.701 34.7954 40.8906 35.8512 38.7897 35.8512Z" fill="#0A0A0A"></path><path d="M57.6472 5.33216C56.7574 3.97296 55.2189 3.16211 53.532 3.16211H32.8697C31.739 3.16211 30.6762 3.52378 29.8235 4.16546C29.6814 4.27047 29.5454 4.38714 29.4157 4.50964C29.2983 4.62047 29.1932 4.73131 29.0882 4.85381C28.9584 5.00548 28.8349 5.16882 28.7236 5.33799C27.8339 6.69719 27.7535 8.36556 28.5074 9.79475L37.6336 27.091C38.6902 29.086 40.8158 30.3227 43.1823 30.3227C43.9053 30.3227 44.6035 30.206 45.2523 29.9902C45.4747 29.9144 45.691 29.8327 45.901 29.7335C46.142 29.6227 46.3768 29.4944 46.6054 29.3543C47.4643 28.8118 48.1811 28.0535 48.663 27.1435L52.5557 19.8633L57.8696 9.82976C58.6296 8.38889 58.5493 6.70885 57.6472 5.33216ZM43.1823 28.2927C41.6191 28.2927 40.2659 27.5051 39.5676 26.1868L30.4414 8.89057C30.0212 8.09722 30.0645 7.17553 30.5588 6.41718C31.0593 5.65883 31.9181 5.20382 32.8635 5.20382H53.532C53.7236 5.20382 53.9089 5.22132 54.0943 5.25632C54.1561 5.26799 54.2241 5.28549 54.2858 5.30299C54.3538 5.32049 54.4218 5.34382 54.4898 5.36716C54.6813 5.43716 54.8605 5.52466 55.0273 5.62966C55.1509 5.7055 55.2683 5.79883 55.3733 5.898H55.4722C55.4969 5.898 55.5216 5.898 55.5402 5.90384C55.7997 5.933 55.948 6.10801 55.9974 6.18968C56.1024 6.34718 56.1333 6.52802 56.0901 6.69719C56.0777 6.74969 56.0592 6.79636 56.0345 6.84886C56.0901 6.97719 56.1333 7.11136 56.1581 7.24553C56.1951 7.42054 56.2199 7.60137 56.2137 7.77638C56.2137 7.84638 56.2075 7.91638 56.2013 7.98638C56.1951 8.05055 56.189 8.11472 56.1766 8.17889C56.1333 8.43556 56.0468 8.6864 55.9233 8.92557L53.2787 13.919L50.6094 18.9533L48.9225 22.1092L46.7167 26.2334C46.0493 27.5226 44.7209 28.2927 43.1823 28.2927Z" fill="#0A0A0A"></path><path d="M57.3373 5.46014C56.7256 4.52095 55.6628 3.96094 54.5074 3.96094H40.7036C40.2835 3.96094 39.8818 4.03094 39.5049 4.16511C39.2578 4.25261 39.0168 4.36928 38.8005 4.50928C38.6399 4.60845 38.4916 4.72512 38.3556 4.85346C38.2382 4.95846 38.1332 5.07513 38.0282 5.19763C37.9602 5.28513 37.8922 5.37263 37.8304 5.4718C37.2125 6.41099 37.1569 7.56018 37.6821 8.54604L43.7437 20.0788C44.4728 21.4555 45.9434 22.313 47.5808 22.313C48.0504 22.313 48.5076 22.243 48.934 22.103C49.1626 22.033 49.3788 21.9397 49.5889 21.8347C49.8608 21.6947 50.1203 21.5255 50.3551 21.333C50.7506 21.0063 51.078 20.6038 51.3252 20.143L53.9265 15.3187L56.1695 11.0836L57.4856 8.5927C58.017 7.58935 57.9614 6.41682 57.3373 5.46014ZM47.5746 20.7263C46.5798 20.7263 45.6838 20.2071 45.2451 19.3729L39.1836 7.84019C38.9179 7.34434 38.9488 6.78433 39.2578 6.30599C39.5729 5.82764 40.1105 5.54764 40.7036 5.54764H54.5074C54.5506 5.54764 54.5939 5.54764 54.6371 5.55347C54.6989 5.55931 54.7545 5.56514 54.8163 5.57681C54.8904 5.58847 54.9584 5.60597 55.0264 5.62931C55.2179 5.68764 55.3909 5.78098 55.5454 5.89765C55.8049 5.92681 55.9532 6.10182 56.0026 6.18349C56.1077 6.34099 56.1386 6.52183 56.0953 6.691C56.1509 6.87183 56.1757 7.0585 56.1633 7.23934C56.1571 7.30351 56.1509 7.36768 56.1386 7.43185C56.1262 7.49018 56.1139 7.54268 56.0953 7.60102C56.083 7.65352 56.0644 7.70018 56.0397 7.75269C56.0212 7.79352 56.0026 7.84019 55.9779 7.88102L52.629 14.2103L52.4251 14.6012L49.8237 19.4254V19.4313C49.3912 20.2421 48.5509 20.7263 47.5746 20.7263Z" fill="#0A0A0A"></path><path d="M57.0235 5.58814L57.0173 5.58231C57.0112 5.57648 57.0112 5.57064 57.005 5.56481C56.6651 5.06313 56.0967 4.76562 55.4726 4.76562H48.5398C48.3236 4.76562 48.1197 4.80063 47.922 4.86479C47.6933 4.94063 47.4771 5.0573 47.2979 5.20897C47.1805 5.30814 47.0693 5.42481 46.9766 5.55314C46.9642 5.57064 46.9519 5.58814 46.9395 5.61148C46.5997 6.13065 46.5688 6.7665 46.853 7.30318L49.8498 13.0666V13.0725C50.2514 13.8308 51.067 14.3033 51.9753 14.3033C52.204 14.3033 52.4264 14.2742 52.6365 14.2158C52.8713 14.1517 53.0937 14.0525 53.2914 13.9183C53.5819 13.7258 53.8166 13.4633 53.9897 13.1483L55.3058 10.7741L56.2141 9.05905L56.3377 8.82571L57.1162 7.35568C57.4128 6.78984 57.3757 6.12482 57.0235 5.58814ZM51.9753 13.1658C51.6231 13.1658 51.1659 13.0083 50.9249 12.5591L47.922 6.78984C47.7798 6.51566 47.8972 6.28232 47.9528 6.19482C48.0764 6.00232 48.2927 5.88565 48.5337 5.88565H55.4726C55.4973 5.88565 55.522 5.88565 55.5406 5.89148C55.8001 5.92065 55.9484 6.09565 55.9978 6.17732C56.1029 6.33483 56.1337 6.51566 56.0905 6.68483C56.0781 6.73733 56.0596 6.784 56.0349 6.8365V6.84234L55.9669 6.97067L55.8928 7.11068L55.8186 7.25068L54.2306 10.2432L52.9145 12.6175L52.9083 12.6291C52.655 13.1133 52.1731 13.1658 51.9753 13.1658Z" fill="#0A0A0A"></path></svg>